<?xml version="1.0" encoding="UTF-8"?>
<svg width="19" height="22" viewBox="0 0 19 22" fill="none" xmlns="http://www.w3.org/2000/svg">
<path d="M1.54492 17.3164C0.617188 17.3164 0.0703125 16.8477 0.0703125 16.1348C0.0703125 15.1582 1.05664 14.2793 1.90625 13.4102C2.55078 12.7363 2.72656 11.3496 2.80469 10.2266C2.87305 6.47656 3.86914 3.89844 6.4668 2.96094C6.82812 1.68164 7.84375 0.675781 9.2793 0.675781C10.7246 0.675781 11.7305 1.68164 12.1016 2.96094C14.6992 3.89844 15.6953 6.47656 15.7637 10.2266C15.8418 11.3496 16.0176 12.7363 16.6621 13.4102C17.502 14.2793 18.498 15.1582 18.498 16.1348C18.498 16.8477 17.9414 17.3164 17.0234 17.3164H1.54492ZM9.2793 21.2324C7.62891 21.2324 6.41797 20.0215 6.29102 18.6543H12.2773C12.1504 20.0215 10.9395 21.2324 9.2793 21.2324Z" fill="#E1E1E1"/>
</svg>
