<?xml version="1.0" encoding="UTF-8"?>
<svg
    width="24"
    height="21"
    viewBox="0 0 24 21"
    xmlns="http://www.w3.org/2000/svg"
    fill="none">
  <path
      d="M0.864322 10.6648C0.321608 10.6648 0 10.2753 0 9.86591C0 9.63623 0.100503 9.39658 0.321608 9.21683L10.794 0.479315C11.1759 0.159772 11.5879 0 12 0C12.4121 0 12.8241 0.159772 13.206 0.479315L18.5427 4.92297V2.97575C18.5427 2.53638 18.8342 2.25678 19.2663 2.25678H20.3417C20.7839 2.25678 21.0653 2.53638 21.0653 2.97575V7.02996L23.6784 9.21683C23.9095 9.39658 24 9.63623 24 9.86591C24 10.2753 23.6784 10.6648 23.1357 10.6648C22.8543 10.6648 22.6231 10.515 22.4221 10.3452L12.3518 1.94722C12.2412 1.85735 12.1206 1.80742 12 1.80742C11.8894 1.80742 11.7588 1.85735 11.6482 1.94722L1.58794 10.3452C1.37688 10.515 1.14573 10.6648 0.864322 10.6648ZM3.13568 18.8031V10.8745L11.397 3.99429C11.7688 3.68474 12.2211 3.67475 12.603 3.99429L20.8643 10.8745V18.8031C20.8643 20.1912 20.0302 21 18.6131 21H5.39699C3.9799 21 3.13568 20.1912 3.13568 18.8031ZM9.28643 19.3923H14.7136V13.5207C14.7136 13.0613 14.4221 12.7618 13.9497 12.7618H10.0603C9.59799 12.7618 9.28643 13.0613 9.28643 13.5207V19.3923Z"
      fill="#E1E1E1"/>
</svg>
