<?xml version="1.0" encoding="UTF-8"?>
<svg width="20" height="20" viewBox="0 0 20 20" fill="none" xmlns="http://www.w3.org/2000/svg">
<path d="M11.9523 20C11.0644 20 10.7685 19.2936 10.4821 18.3294L8.9642 13.2888C8.78282 12.6492 8.81146 12.3246 9.18377 11.9332L18.9308 1.42243C19.0453 1.29833 19.0358 1.15513 18.9403 1.05967C18.8449 0.973747 18.7017 0.954654 18.5776 1.06921L8.10501 10.8544C7.69451 11.2363 7.35084 11.2554 6.73986 11.0644L1.58473 9.49881C0.668258 9.22196 0 8.92601 0 8.04773C0 7.35084 0.620525 6.86396 1.42243 6.55847L17.8425 0.267303C18.2816 0.0954654 18.673 0 18.9976 0C19.6181 0 20 0.381862 20 1.00239C20 1.32697 19.9045 1.71838 19.7327 2.15752L13.4797 18.4916C13.1265 19.4081 12.6396 20 11.9523 20Z" fill="#E1E1E1"/>
</svg>